<mxfile host="app.diagrams.net" modified="2020-11-24T00:36:57.379Z" agent="5.0 (Macintosh; Intel Mac OS X 10_15_7) AppleWebKit/537.36 (KHTML, like Gecko) Chrome/86.0.4240.198 Safari/537.36" etag="fkRK4d4UMxmkKajo4eDu" version="13.10.1" type="github" pages="2">
  <diagram id="1NvAmDD4GnZP0qQADfI0" name="MySQL数据库体系结构">
    <mxGraphModel dx="983" dy="506" grid="1" gridSize="10" guides="1" tooltips="1" connect="1" arrows="1" fold="1" page="1" pageScale="1" pageWidth="827" pageHeight="1169" math="0" shadow="0">
      <root>
        <mxCell id="0" />
        <mxCell id="1" parent="0" />
        <mxCell id="vyxGbj2GLMR6CbQMTc-1-1" value="Connectors&lt;br&gt;Navicat,JDBC,ODBC,NET,PHP,Python..." style="rounded=1;whiteSpace=wrap;html=1;" parent="1" vertex="1">
          <mxGeometry x="120" y="50" width="520" height="60" as="geometry" />
        </mxCell>
        <mxCell id="vyxGbj2GLMR6CbQMTc-1-3" value="" style="rounded=0.5;whiteSpace=wrap;html=1;" parent="1" vertex="1">
          <mxGeometry x="100" y="150" width="560" height="350" as="geometry" />
        </mxCell>
        <mxCell id="vyxGbj2GLMR6CbQMTc-1-4" value="MySQL Server" style="text;html=1;strokeColor=none;fillColor=none;align=center;verticalAlign=middle;whiteSpace=wrap;rounded=0;" parent="1" vertex="1">
          <mxGeometry x="550" y="150" width="120" height="20" as="geometry" />
        </mxCell>
        <mxCell id="vyxGbj2GLMR6CbQMTc-1-5" value="Management Service &amp;amp;utillties&lt;br&gt;&lt;br&gt;Backup &amp;amp; Recovery,Security&lt;br&gt;replicatoin,Cluster&lt;br&gt;Admin&lt;br&gt;config&lt;br&gt;migratation&amp;amp;Metadata" style="rounded=1;whiteSpace=wrap;html=1;" parent="1" vertex="1">
          <mxGeometry x="120" y="180" width="120" height="140" as="geometry" />
        </mxCell>
        <mxCell id="vyxGbj2GLMR6CbQMTc-1-6" value="" style="rounded=1;whiteSpace=wrap;html=1;" parent="1" vertex="1">
          <mxGeometry x="120" y="340" width="520" height="80" as="geometry" />
        </mxCell>
        <mxCell id="vyxGbj2GLMR6CbQMTc-1-7" value="" style="rounded=1;whiteSpace=wrap;html=1;" parent="1" vertex="1">
          <mxGeometry x="120" y="430" width="520" height="60" as="geometry" />
        </mxCell>
        <mxCell id="vyxGbj2GLMR6CbQMTc-1-8" value="Connection Pool&lt;br&gt;Authentication,Thread Reuse,Connection Limits,Check Memory,Caches" style="rounded=1;whiteSpace=wrap;html=1;" parent="1" vertex="1">
          <mxGeometry x="260" y="180" width="380" height="60" as="geometry" />
        </mxCell>
        <mxCell id="vyxGbj2GLMR6CbQMTc-1-9" value="SQL Interface" style="rounded=1;whiteSpace=wrap;html=1;" parent="1" vertex="1">
          <mxGeometry x="260" y="260" width="80" height="60" as="geometry" />
        </mxCell>
        <mxCell id="vyxGbj2GLMR6CbQMTc-1-10" value="Parser" style="rounded=1;whiteSpace=wrap;html=1;" parent="1" vertex="1">
          <mxGeometry x="360" y="260" width="80" height="60" as="geometry" />
        </mxCell>
        <mxCell id="vyxGbj2GLMR6CbQMTc-1-11" value="Optimizer" style="rounded=1;whiteSpace=wrap;html=1;" parent="1" vertex="1">
          <mxGeometry x="460" y="260" width="80" height="60" as="geometry" />
        </mxCell>
        <mxCell id="vyxGbj2GLMR6CbQMTc-1-12" value="Caches&amp;amp; Buffers" style="rounded=1;whiteSpace=wrap;html=1;" parent="1" vertex="1">
          <mxGeometry x="560" y="260" width="80" height="60" as="geometry" />
        </mxCell>
        <mxCell id="vyxGbj2GLMR6CbQMTc-1-13" value="MyISAM" style="shape=cylinder3;whiteSpace=wrap;html=1;boundedLbl=1;backgroundOutline=1;size=15;rounded=2;" parent="1" vertex="1">
          <mxGeometry x="140" y="350" width="50" height="60" as="geometry" />
        </mxCell>
        <mxCell id="vyxGbj2GLMR6CbQMTc-1-14" value="InnoDB" style="shape=cylinder3;whiteSpace=wrap;html=1;boundedLbl=1;backgroundOutline=1;size=15;rounded=2;" parent="1" vertex="1">
          <mxGeometry x="220" y="350" width="50" height="60" as="geometry" />
        </mxCell>
        <mxCell id="vyxGbj2GLMR6CbQMTc-1-15" value="NDB" style="shape=cylinder3;whiteSpace=wrap;html=1;boundedLbl=1;backgroundOutline=1;size=15;rounded=2;" parent="1" vertex="1">
          <mxGeometry x="310" y="350" width="50" height="60" as="geometry" />
        </mxCell>
        <mxCell id="vyxGbj2GLMR6CbQMTc-1-16" value="Memory" style="shape=cylinder3;whiteSpace=wrap;html=1;boundedLbl=1;backgroundOutline=1;size=15;rounded=2;" parent="1" vertex="1">
          <mxGeometry x="400" y="350" width="50" height="60" as="geometry" />
        </mxCell>
        <mxCell id="vyxGbj2GLMR6CbQMTc-1-17" value="..." style="shape=cylinder3;whiteSpace=wrap;html=1;boundedLbl=1;backgroundOutline=1;size=15;rounded=2;" parent="1" vertex="1">
          <mxGeometry x="480" y="350" width="50" height="60" as="geometry" />
        </mxCell>
        <mxCell id="vyxGbj2GLMR6CbQMTc-1-18" value="..." style="shape=cylinder3;whiteSpace=wrap;html=1;boundedLbl=1;backgroundOutline=1;size=15;rounded=2;" parent="1" vertex="1">
          <mxGeometry x="560" y="350" width="50" height="60" as="geometry" />
        </mxCell>
        <mxCell id="vyxGbj2GLMR6CbQMTc-1-20" value="File System" style="text;html=1;strokeColor=none;fillColor=none;align=center;verticalAlign=middle;whiteSpace=wrap;rounded=0;" parent="1" vertex="1">
          <mxGeometry x="145" y="450" width="40" height="20" as="geometry" />
        </mxCell>
        <mxCell id="vyxGbj2GLMR6CbQMTc-1-21" value="Files&amp;amp;Logs&lt;br&gt;Redo Undo Data Index" style="text;html=1;strokeColor=none;fillColor=none;align=center;verticalAlign=middle;whiteSpace=wrap;rounded=0;" parent="1" vertex="1">
          <mxGeometry x="430" y="450" width="190" height="20" as="geometry" />
        </mxCell>
        <mxCell id="vyxGbj2GLMR6CbQMTc-1-22" value="" style="shape=flexArrow;endArrow=classic;startArrow=classic;html=1;exitX=0.32;exitY=0.002;exitDx=0;exitDy=0;exitPerimeter=0;width=22.758620689655174;endSize=4.275862068965518;startSize=4.275862068965518;" parent="1" source="vyxGbj2GLMR6CbQMTc-1-3" edge="1">
          <mxGeometry width="50" height="50" relative="1" as="geometry">
            <mxPoint x="230" y="160" as="sourcePoint" />
            <mxPoint x="280" y="110" as="targetPoint" />
          </mxGeometry>
        </mxCell>
        <mxCell id="vyxGbj2GLMR6CbQMTc-1-25" value="" style="shape=flexArrow;endArrow=classic;startArrow=classic;html=1;exitX=0.32;exitY=0.002;exitDx=0;exitDy=0;exitPerimeter=0;width=22.758620689655174;endSize=4.275862068965518;startSize=4.275862068965518;" parent="1" edge="1">
          <mxGeometry width="50" height="50" relative="1" as="geometry">
            <mxPoint x="470.00000000000006" y="150.69999999999993" as="sourcePoint" />
            <mxPoint x="470.8" y="110" as="targetPoint" />
          </mxGeometry>
        </mxCell>
      </root>
    </mxGraphModel>
  </diagram>
  <diagram id="QAzHBkqs4wmBvgQRLrBV" name="InnoDB体系结构">
    <mxGraphModel dx="1426" dy="734" grid="1" gridSize="10" guides="1" tooltips="1" connect="1" arrows="1" fold="1" page="1" pageScale="1" pageWidth="827" pageHeight="1169" math="0" shadow="0">
      <root>
        <mxCell id="dcEaifeUKpPYD4qNaZGE-0" />
        <mxCell id="dcEaifeUKpPYD4qNaZGE-1" parent="dcEaifeUKpPYD4qNaZGE-0" />
        <mxCell id="dcEaifeUKpPYD4qNaZGE-2" value="" style="rounded=0;whiteSpace=wrap;html=1;" vertex="1" parent="dcEaifeUKpPYD4qNaZGE-1">
          <mxGeometry x="40" y="80" width="720" height="210" as="geometry" />
        </mxCell>
        <mxCell id="dcEaifeUKpPYD4qNaZGE-9" value="" style="verticalLabelPosition=bottom;html=1;verticalAlign=top;strokeWidth=1;align=center;outlineConnect=0;dashed=0;outlineConnect=0;shape=mxgraph.aws3d.file;aspect=fixed;strokeColor=#292929;rounded=2;" vertex="1" parent="dcEaifeUKpPYD4qNaZGE-1">
          <mxGeometry x="310" y="360" width="78.53" height="180" as="geometry" />
        </mxCell>
        <mxCell id="dcEaifeUKpPYD4qNaZGE-15" value="" style="verticalLabelPosition=bottom;html=1;verticalAlign=top;strokeWidth=1;align=center;outlineConnect=0;dashed=0;outlineConnect=0;shape=mxgraph.aws3d.file;aspect=fixed;strokeColor=#292929;rounded=2;" vertex="1" parent="dcEaifeUKpPYD4qNaZGE-1">
          <mxGeometry x="320" y="370" width="78.53" height="180" as="geometry" />
        </mxCell>
        <mxCell id="dcEaifeUKpPYD4qNaZGE-16" value="" style="verticalLabelPosition=bottom;html=1;verticalAlign=top;strokeWidth=1;align=center;outlineConnect=0;dashed=0;outlineConnect=0;shape=mxgraph.aws3d.file;aspect=fixed;strokeColor=#292929;rounded=2;" vertex="1" parent="dcEaifeUKpPYD4qNaZGE-1">
          <mxGeometry x="330" y="380" width="78.53" height="180" as="geometry" />
        </mxCell>
        <mxCell id="dcEaifeUKpPYD4qNaZGE-17" value="" style="verticalLabelPosition=bottom;html=1;verticalAlign=top;strokeWidth=1;align=center;outlineConnect=0;dashed=0;outlineConnect=0;shape=mxgraph.aws3d.file;aspect=fixed;strokeColor=#292929;rounded=2;" vertex="1" parent="dcEaifeUKpPYD4qNaZGE-1">
          <mxGeometry x="340" y="390" width="78.53" height="180" as="geometry" />
        </mxCell>
        <mxCell id="dcEaifeUKpPYD4qNaZGE-18" value="" style="verticalLabelPosition=bottom;html=1;verticalAlign=top;strokeWidth=1;align=center;outlineConnect=0;dashed=0;outlineConnect=0;shape=mxgraph.aws3d.file;aspect=fixed;strokeColor=#292929;rounded=2;" vertex="1" parent="dcEaifeUKpPYD4qNaZGE-1">
          <mxGeometry x="350" y="400" width="78.53" height="180" as="geometry" />
        </mxCell>
        <mxCell id="dcEaifeUKpPYD4qNaZGE-19" value="" style="verticalLabelPosition=bottom;html=1;verticalAlign=top;strokeWidth=1;align=center;outlineConnect=0;dashed=0;outlineConnect=0;shape=mxgraph.aws3d.file;aspect=fixed;strokeColor=#292929;rounded=2;" vertex="1" parent="dcEaifeUKpPYD4qNaZGE-1">
          <mxGeometry x="360" y="410" width="78.53" height="180" as="geometry" />
        </mxCell>
        <mxCell id="dcEaifeUKpPYD4qNaZGE-20" value="文件" style="verticalLabelPosition=bottom;html=1;verticalAlign=top;strokeWidth=1;align=center;outlineConnect=0;dashed=0;outlineConnect=0;shape=mxgraph.aws3d.file;aspect=fixed;strokeColor=#292929;rounded=2;" vertex="1" parent="dcEaifeUKpPYD4qNaZGE-1">
          <mxGeometry x="370" y="420" width="78.53" height="180" as="geometry" />
        </mxCell>
        <mxCell id="dcEaifeUKpPYD4qNaZGE-21" value="后台线程" style="ellipse;whiteSpace=wrap;html=1;rounded=2;" vertex="1" parent="dcEaifeUKpPYD4qNaZGE-1">
          <mxGeometry x="90" y="110" width="120" height="80" as="geometry" />
        </mxCell>
        <mxCell id="dcEaifeUKpPYD4qNaZGE-23" value="后台线程" style="ellipse;whiteSpace=wrap;html=1;rounded=2;" vertex="1" parent="dcEaifeUKpPYD4qNaZGE-1">
          <mxGeometry x="278.53" y="110" width="120" height="80" as="geometry" />
        </mxCell>
        <mxCell id="dcEaifeUKpPYD4qNaZGE-24" value="后台线程" style="ellipse;whiteSpace=wrap;html=1;rounded=2;" vertex="1" parent="dcEaifeUKpPYD4qNaZGE-1">
          <mxGeometry x="438.53" y="110" width="120" height="80" as="geometry" />
        </mxCell>
        <mxCell id="dcEaifeUKpPYD4qNaZGE-25" value="后台线程" style="ellipse;whiteSpace=wrap;html=1;rounded=2;" vertex="1" parent="dcEaifeUKpPYD4qNaZGE-1">
          <mxGeometry x="600" y="110" width="120" height="80" as="geometry" />
        </mxCell>
        <mxCell id="dcEaifeUKpPYD4qNaZGE-26" value="InnoDB存储引擎内存池" style="rounded=1;whiteSpace=wrap;html=1;" vertex="1" parent="dcEaifeUKpPYD4qNaZGE-1">
          <mxGeometry x="190" y="210" width="450" height="60" as="geometry" />
        </mxCell>
        <mxCell id="dcEaifeUKpPYD4qNaZGE-27" value="" style="endArrow=classic;startArrow=classic;html=1;entryX=0.5;entryY=1;entryDx=0;entryDy=0;" edge="1" parent="dcEaifeUKpPYD4qNaZGE-1" target="dcEaifeUKpPYD4qNaZGE-26">
          <mxGeometry width="50" height="50" relative="1" as="geometry">
            <mxPoint x="415" y="380" as="sourcePoint" />
            <mxPoint x="220" y="450" as="targetPoint" />
          </mxGeometry>
        </mxCell>
      </root>
    </mxGraphModel>
  </diagram>
</mxfile>
